# xmcd
#
# Track frame offsets: 
#        150
#        10056
#        25203
#        34668
#        43957
#        53829
#        64676
#        78507
#        90289
#        100412
#        111064
#        123816
#        136352
#        147380
#        157082
#        166815
#        177617
#        186288
#        198764
#        209190
#        218936
#        229317
#        239018
#        249724
#        259357
#        270318
#        283326
#        293426
#        306358
#        316729
#        330195
#        340434
#        350878
#
# Disc length: 4841 seconds
#
# Revision: 0
# Processed by: cddbd v1.5.2PL0 Copyright (c) Steve Scherf et al.
# Submitted via: ExactAudioCopyFreeDBPlugin 1.0
#
DISCID=fb12e721
DTITLE=George Jones - Birth Of A Legend 1954-1961 [CD6]
DYEAR=2017
DGENRE=Country
TTITLE0=Nobody's Lonesome For Me
TTITLE1=Cold, Cold Heart
TTITLE2=Why Don't You Love Me
TTITLE3=Honky Tonkin'
TTITLE4=Jambalaya (On The Bayou)
TTITLE5=I Can't Help It
TTITLE6=Family Bible
TTITLE7=The Window Up There
TTITLE8=I Wouldn't Know About That
TTITLE9=With Half A Heart
TTITLE10=Aching Breaking Heart
TTITLE11=Battle Of Love
TTITLE12=Tender Years
TTITLE13=When My Heart Hurts No More
TTITLE14=Did I Ever Tell You (& Margie Singleton)
TTITLE15=Not Even Friends (& Margie Singleton)
TTITLE16=I Want To Be Where You're Gonna Be (& Margie Singleton)
TTITLE17=Waltz Of The Angels (& Margie Singleton)
TTITLE18=Are You Mine (& Margie Singleton)
TTITLE19=One Excuse Is As Good As Another (& Margie Singleton)
TTITLE20=Yearning (& Margie Singleton)
TTITLE21=Looking Back To See (& Margie Singleton)
TTITLE22=One By One (& Margie Singleton)
TTITLE23=If You Don't Somebody Else Will (& Margie Singleton)
TTITLE24=When Two Worlds Collide (& Margie Singleton)
TTITLE25=Baby (You've Got What It Takes) (& Margie Singleton)
TTITLE26=Talk About Lovin' (& Margie Singleton)
TTITLE27=I Don't Hear You (& Margie Singleton)
TTITLE28=Why Baby Why (edited)
TTITLE29=Seasons Of My Heart (remake)
TTITLE30=Heartbreak Hotel (long edit)
TTITLE31=Arlie Duff - Let Me Be Your Salty Dog
TTITLE32=Arlie Duff - Back To The Country
EXTD=
EXTT0=
EXTT1=
EXTT2=
EXTT3=
EXTT4=
EXTT5=
EXTT6=
EXTT7=
EXTT8=
EXTT9=
EXTT10=
EXTT11=
EXTT12=
EXTT13=
EXTT14=
EXTT15=
EXTT16=
EXTT17=
EXTT18=
EXTT19=
EXTT20=
EXTT21=
EXTT22=
EXTT23=
EXTT24=
EXTT25=
EXTT26=
EXTT27=
EXTT28=
EXTT29=
EXTT30=
EXTT31=
EXTT32=
PLAYORDER=
